<svg width="817.3px" height="146px" xmlns="http://www.w3.org/2000/svg" viewBox="-158.671875 2 817.34375 146" style="background: rgba(0, 0, 0, 0)" preserveAspectRatio="xMidYMid"><defs><linearGradient id="editing-shiny-gradient" x1="0.996273075820661" x2="0.0037269241793390084" y1="0.5609346717025738" y2="0.4390653282974261" gradientUnits="objectBoundingBox"><stop offset="0" stop-color="#ffb200"></stop><stop offset="0.5" stop-color="#e10057"></stop><stop offset="1" stop-color="#5a1a80"></stop></linearGradient><linearGradient id="editing-shiny-gradient2" x1="0" x2="0" y1="0" y2="1"><stop offset="0.2" stop-color="#ffffff" stop-opacity="0.8"></stop><stop offset="0.8" stop-color="#ffffff" stop-opacity="0"></stop></linearGradient><filter id="editing-shiny2" x="-100%" y="-100%" width="300%" height="300%"><feMorphology operator="erode" radius="2"></feMorphology></filter><filter id="editing-shiny" x="-100%" y="-100%" width="300%" height="300%"><feFlood flood-color="#fff" result="flood"></feFlood><feConvolveMatrix in="SourceGraphic" result="conv" order="8,8" divisor="1" kernelMatrix="0 0 0 0 0 0 0 0 0 0 0 1 1 0 0 0 0 0 0 1 1 0 0 0 0 0 1 0 0 1 0 0 0 0 1 0 0 1 0 0 0 1 0 0 0 0 1 0 0 1 1 0 0 1 1 0 0 0 0 1 1 0 0 0 "></feConvolveMatrix><feOffset dx="0" dy="4" in="conv" result="offset"></feOffset><feComposite operator="in" in="flood" in2="offset" result="comp"></feComposite><feGaussianBlur in="offset" stdDeviation="3" result="shadow"></feGaussianBlur><feColorMatrix in="shadow" type="matrix" values="0.7 0 0 0 0  0 0.7 0 0 0  0 0 0.7 0 0  0 0 0 0.3 0" result="dark-shadow"></feColorMatrix><feOffset dx="0" dy="4" in="dark-shadow" result="offset-shadow"></feOffset><feOffset dx="0" dy="2" in="conv" result="offset-2"></feOffset><feComposite operator="out" in="offset" in2="offset-2" result="edge-diff"></feComposite><feGaussianBlur in="edge-diff" stdDeviation="1" result="edge-blur"></feGaussianBlur><feColorMatrix in="edge-blur" result="edge-shadow" type="matrix" values="0 0 0 0 0  0 0 0 0 0  0 0 0 0 0  0 0 0 0.5 0"></feColorMatrix><feComposite operator="in" in="edge-shadow" in2="offset" result="edge-shadow-in"></feComposite><feOffset dx="0" dy="1" in="edge-shadow-in" result="edge-shadow-final"></feOffset><feMerge result="out"><feMergeNode in="offset-shadow"></feMergeNode><feMergeNode in="comp"></feMergeNode><feMergeNode in="edge-shadow-final"></feMergeNode><feMergeNode in="SourceGraphic"></feMergeNode></feMerge></filter></defs><g filter="url(#editing-shiny)"><g transform="translate(-42.6,111.8)"><path d="M 17.9 0 L 0.5 0 L 10.6 -52.8 L 28.2 -52.8 L 17.9 0 Z M 87.6 1.6 L 87.6 1.6 L 87.6 1.6 Q 77.9 1.6 77.9 -5.9 L 77.9 -5.9 L 77.9 -5.9 Q 77.9 -9.2 79.3 -15.6 L 79.3 -15.6 L 79.3 -15.6 Q 80.7 -21.9 81.2 -24.5 L 81.2 -24.5 L 81.2 -24.5 Q 82.3 -30.3 82.3 -32.2 L 82.3 -32.2 L 82.3 -32.2 Q 82.3 -36.2 79.3 -36.2 L 79.3 -36.2 L 79.3 -36.2 Q 77.3 -36.2 75.4 -33.5 L 75.4 -33.5 L 75.4 -33.5 Q 73.4 -30.7 72.6 -25.2 L 72.6 -25.2 L 67.6 0 L 52 1.6 L 56.3 -20.2 L 56.3 -20.2 Q 57 -23.8 57.7 -27.8 L 57.7 -27.8 L 57.7 -27.8 Q 58.3 -31.9 58.3 -32.6 L 58.3 -32.6 L 58.3 -32.6 Q 58.3 -36.2 55.6 -36.2 L 55.6 -36.2 L 55.6 -36.2 Q 53.8 -36.2 51.8 -33.5 L 51.8 -33.5 L 51.8 -33.5 Q 49.8 -30.8 48.6 -25.2 L 48.6 -25.2 L 43.8 0 L 28 1.6 L 36.4 -40.8 L 49.4 -42.4 L 48.1 -34.3 L 48.1 -34.3 Q 50.2 -38.6 54 -40.5 L 54 -40.5 L 54 -40.5 Q 57.8 -42.4 63.8 -42.4 L 63.8 -42.4 L 63.8 -42.4 Q 67.3 -42.4 69.5 -40.7 L 69.5 -40.7 L 69.5 -40.7 Q 71.8 -39 72.5 -36.3 L 72.5 -36.3 L 72.5 -36.3 Q 73.8 -39.1 77.3 -40.8 L 77.3 -40.8 L 77.3 -40.8 Q 80.8 -42.4 85.1 -42.4 L 85.1 -42.4 L 85.1 -42.4 Q 89.4 -42.4 91.5 -41.5 L 91.5 -41.5 L 91.5 -41.5 Q 93.6 -40.6 94.9 -39 L 94.9 -39 L 94.9 -39 Q 97 -36.2 97 -31.1 L 97 -31.1 L 97 -31.1 Q 97 -26.1 94.9 -15.6 L 94.9 -15.6 L 94.9 -15.6 Q 93.8 -10.5 93.8 -8.6 L 93.8 -8.6 L 93.8 -8.6 Q 93.8 -6.7 94.8 -5.6 L 94.8 -5.6 L 94.8 -5.6 Q 95.9 -4.5 97.5 -4.3 L 97.5 -4.3 L 97.5 -4.3 Q 96.7 -1.6 94 0 L 94 0 L 94 0 Q 91.2 1.6 87.6 1.6 Z M 107.2 -2.4 L 107.2 -2.4 L 107.2 -2.4 Q 105.3 -4.5 104.4 -7.8 L 104.4 -7.8 L 104.4 -7.8 Q 103.6 -11 103.6 -16.4 L 103.6 -16.4 L 103.6 -16.4 Q 103.6 -21.8 105.4 -26.6 L 105.4 -26.6 L 105.4 -26.6 Q 107.3 -31.5 110.6 -35 L 110.6 -35 L 110.6 -35 Q 117.5 -42.4 128.9 -42.4 L 128.9 -42.4 L 128.9 -42.4 Q 133 -42.4 135.9 -41 L 135.9 -41 L 149.6 -42.4 L 143.7 -11.2 L 143.7 -11.2 Q 143.4 -10.2 143.4 -8.5 L 143.4 -8.5 L 143.4 -8.5 Q 143.4 -6.7 144.5 -5.6 L 144.5 -5.6 L 144.5 -5.6 Q 145.6 -4.5 147.2 -4.3 L 147.2 -4.3 L 147.2 -4.3 Q 146.4 -1.6 143.5 0 L 143.5 0 L 143.5 0 Q 140.6 1.6 137.3 1.6 L 137.3 1.6 L 137.3 1.6 Q 134 1.6 131.8 0.4 L 131.8 0.4 L 131.8 0.4 Q 129.6 -0.9 129 -3 L 129 -3 L 129 -3 Q 127.7 -1 125 0.3 L 125 0.3 L 125 0.3 Q 122.2 1.6 118.6 1.6 L 118.6 1.6 L 118.6 1.6 Q 115 1.6 112 0.6 L 112 0.6 L 112 0.6 Q 109 -0.3 107.2 -2.4 Z M 124 -34.9 L 124 -34.9 L 124 -34.9 Q 123.1 -33.4 122.3 -31 L 122.3 -31 L 122.3 -31 Q 121.5 -28.6 120.2 -22 L 120.2 -22 L 120.2 -22 Q 118.9 -15.5 118.9 -10.9 L 118.9 -10.9 L 118.9 -10.9 Q 118.9 -6.2 119.6 -4.9 L 119.6 -4.9 L 119.6 -4.9 Q 120.3 -3.5 121.6 -3.5 L 121.6 -3.5 L 121.6 -3.5 Q 124.2 -3.5 126 -6 L 126 -6 L 126 -6 Q 127.9 -8.4 128.6 -12.7 L 128.6 -12.7 L 132.9 -36.2 L 132.9 -36.2 Q 131.2 -37.6 129.2 -37.6 L 129.2 -37.6 L 129.2 -37.6 Q 127.3 -37.6 126.1 -37 L 126.1 -37 L 126.1 -37 Q 125 -36.3 124 -34.9 Z M 159.3 -33.4 L 159.3 -33.4 L 159.3 -33.4 Q 162 -37.3 166.1 -39.8 L 166.1 -39.8 L 166.1 -39.8 Q 170.2 -42.4 175.3 -42.4 L 175.3 -42.4 L 175.3 -42.4 Q 180.3 -42.4 182.7 -40.8 L 182.7 -40.8 L 198.4 -42.4 L 193 -11.7 L 193 -11.7 Q 190.2 4 184.2 10.2 L 184.2 10.2 L 184.2 10.2 Q 178.6 16 167.5 16 L 167.5 16 L 167.5 16 Q 159.1 16 154.3 13.4 L 154.3 13.4 L 154.3 13.4 Q 149.5 10.7 149.5 6.3 L 149.5 6.3 L 149.5 6.3 Q 149.5 3 152 1.2 L 152 1.2 L 152 1.2 Q 154.5 -0.7 158.3 -0.7 L 158.3 -0.7 L 158.3 -0.7 Q 161.7 -0.7 164.2 0.8 L 164.2 0.8 L 164.2 0.8 Q 165.8 1.6 166.5 2.7 L 166.5 2.7 L 166.5 2.7 Q 164.6 4.3 164.6 7 L 164.6 7 L 164.6 7 Q 164.6 10.4 167.8 10.4 L 167.8 10.4 L 167.8 10.4 Q 173.2 10.4 176.2 -2.2 L 176.2 -2.2 L 176.2 -2.2 Q 177.1 -5.7 177.8 -9.1 L 177.8 -9.1 L 177.8 -9.1 Q 174.2 -4.7 166.1 -4.7 L 166.1 -4.7 L 166.1 -4.7 Q 160.4 -4.7 157.1 -7.4 L 157.1 -7.4 L 157.1 -7.4 Q 153.8 -10.2 153.8 -16.6 L 153.8 -16.6 L 153.8 -16.6 Q 153.8 -20.6 155.2 -25.1 L 155.2 -25.1 L 155.2 -25.1 Q 156.6 -29.6 159.3 -33.4 Z M 169.7 -16.3 L 169.7 -16.3 L 169.7 -16.3 Q 169.7 -10.9 172.5 -10.9 L 172.5 -10.9 L 172.5 -10.9 Q 174.4 -10.9 176.2 -13 L 176.2 -13 L 176.2 -13 Q 177.7 -14.6 178.2 -17.1 L 178.2 -17.1 L 182.3 -37.7 L 182.3 -37.7 Q 181.9 -37.8 181.5 -37.9 L 181.5 -37.9 L 181.5 -37.9 Q 180.7 -38.2 179.7 -38.2 L 179.7 -38.2 L 179.7 -38.2 Q 174.8 -38.2 171.9 -30.2 L 171.9 -30.2 L 171.9 -30.2 Q 169.7 -24 169.7 -16.3 Z M 233.9 -13.5 L 233.9 -13.5 L 233.9 -13.5 Q 235.9 -12.2 235.9 -9.2 L 235.9 -9.2 L 235.9 -9.2 Q 235.9 -6.2 234.4 -4.2 L 234.4 -4.2 L 234.4 -4.2 Q 232.9 -2.3 230.4 -1 L 230.4 -1 L 230.4 -1 Q 225.3 1.6 219.8 1.6 L 219.8 1.6 L 219.8 1.6 Q 214.2 1.6 211 0.4 L 211 0.4 L 211 0.4 Q 207.8 -0.8 205.6 -3 L 205.6 -3 L 205.6 -3 Q 201.4 -7.3 201.4 -15 L 201.4 -15 L 201.4 -15 Q 201.4 -27.1 207.9 -34.5 L 207.9 -34.5 L 207.9 -34.5 Q 215 -42.4 227.2 -42.4 L 227.2 -42.4 L 227.2 -42.4 Q 234.8 -42.4 238.6 -39.2 L 238.6 -39.2 L 238.6 -39.2 Q 241.4 -36.8 241.4 -32.9 L 241.4 -32.9 L 241.4 -32.9 Q 241.4 -18.8 217 -18.8 L 217 -18.8 L 217 -18.8 Q 216.7 -16.7 216.7 -15 L 216.7 -15 L 216.7 -15 Q 216.7 -11.3 218.4 -9.9 L 218.4 -9.9 L 218.4 -9.9 Q 220 -8.5 223 -8.5 L 223 -8.5 L 223 -8.5 Q 226.1 -8.5 229.3 -9.9 L 229.3 -9.9 L 229.3 -9.9 Q 232.6 -11.3 233.9 -13.5 Z M 217.6 -22.2 L 217.6 -22.2 L 217.6 -22.2 Q 223.3 -22.2 226.6 -25.8 L 226.6 -25.8 L 226.6 -25.8 Q 229.8 -29.1 229.8 -34.5 L 229.8 -34.5 L 229.8 -34.5 Q 229.8 -36.3 229.2 -37.3 L 229.2 -37.3 L 229.2 -37.3 Q 228.5 -38.3 227.1 -38.3 L 227.1 -38.3 L 227.1 -38.3 Q 225.8 -38.3 224.6 -37.8 L 224.6 -37.8 L 224.6 -37.8 Q 223.4 -37.3 222.2 -35.5 L 222.2 -35.5 L 222.2 -35.5 Q 219.3 -31.5 217.6 -22.2 Z M 268 -28.1 L 268 -28.1 L 268 -28.1 Q 269.1 -31 269.1 -33.6 L 269.1 -33.6 L 269.1 -33.6 Q 269.1 -38.3 265.3 -38.3 L 265.3 -38.3 L 265.3 -38.3 Q 263.3 -38.3 261.6 -36.5 L 261.6 -36.5 L 261.6 -36.5 Q 260 -34.7 260 -32.5 L 260 -32.5 L 260 -32.5 Q 260 -30.9 261.3 -29.6 L 261.3 -29.6 L 261.3 -29.6 Q 263.1 -27.8 267.8 -25 L 267.8 -25 L 267.8 -25 Q 272.6 -22.1 274.4 -19.7 L 274.4 -19.7 L 274.4 -19.7 Q 276.2 -17.4 276.2 -14.1 L 276.2 -14.1 L 276.2 -14.1 Q 276.2 -10.9 274.6 -7.9 L 274.6 -7.9 L 274.6 -7.9 Q 273 -5 270.2 -2.9 L 270.2 -2.9 L 270.2 -2.9 Q 264.2 1.6 254.6 1.6 L 254.6 1.6 L 254.6 1.6 Q 249.4 1.6 245.4 -1.1 L 245.4 -1.1 L 245.4 -1.1 Q 241.4 -3.8 241.4 -6.9 L 241.4 -6.9 L 241.4 -6.9 Q 241.4 -10 243.7 -11.8 L 243.7 -11.8 L 243.7 -11.8 Q 246 -13.7 249.4 -13.7 L 249.4 -13.7 L 249.4 -13.7 Q 252.7 -13.7 254.8 -12.4 L 254.8 -12.4 L 254.8 -12.4 Q 253.8 -9.8 253.8 -8 L 253.8 -8 L 253.8 -8 Q 253.8 -2.7 258.2 -2.7 L 258.2 -2.7 L 258.2 -2.7 Q 260.2 -2.7 261.4 -3.9 L 261.4 -3.9 L 261.4 -3.9 Q 262.7 -5.1 262.7 -7.2 L 262.7 -7.2 L 262.7 -7.2 Q 262.7 -11.3 255.8 -15.6 L 255.8 -15.6 L 255.8 -15.6 Q 250.2 -19.3 249 -20.7 L 249 -20.7 L 249 -20.7 Q 246.8 -23.3 246.8 -26.5 L 246.8 -26.5 L 246.8 -26.5 Q 246.8 -29.7 248.3 -32.7 L 248.3 -32.7 L 248.3 -32.7 Q 249.8 -35.8 252.6 -37.9 L 252.6 -37.9 L 252.6 -37.9 Q 258.5 -42.4 268.6 -42.4 L 268.6 -42.4 L 268.6 -42.4 Q 273.8 -42.4 276.9 -40.3 L 276.9 -40.3 L 276.9 -40.3 Q 280 -38.2 280 -34.7 L 280 -34.7 L 280 -34.7 Q 280 -31.2 277.9 -29.2 L 277.9 -29.2 L 277.9 -29.2 Q 275.8 -27.2 271.9 -27.2 L 271.9 -27.2 L 271.9 -27.2 Q 269.3 -27.2 268 -28.1 Z M 331.8 -25.8 L 348 -27.2 L 348 -27.2 Q 342.2 -14.6 342.2 0.1 L 342.2 0.1 L 342.2 0.1 Q 340.1 1.6 336.9 1.6 L 336.9 1.6 L 336.9 1.6 Q 333.8 1.6 331.8 0.1 L 331.8 0.1 L 331.8 0.1 Q 329.8 -1.4 329.4 -2.9 L 329.4 -2.9 L 329.4 -2.9 Q 327.4 -0.8 324.1 0.4 L 324.1 0.4 L 324.1 0.4 Q 320.9 1.6 317.4 1.6 L 317.4 1.6 L 317.4 1.6 Q 314 1.6 311 0.5 L 311 0.5 L 311 0.5 Q 308 -0.6 305.7 -3.1 L 305.7 -3.1 L 305.7 -3.1 Q 300.6 -8.6 300.6 -18.9 L 300.6 -18.9 L 300.6 -18.9 Q 300.6 -34.9 309.1 -44.5 L 309.1 -44.5 L 309.1 -44.5 Q 317.9 -54.4 333.5 -54.4 L 333.5 -54.4 L 333.5 -54.4 Q 344.3 -54.4 348.2 -48.8 L 348.2 -48.8 L 348.2 -48.8 Q 349.4 -47 349.4 -44.9 L 349.4 -44.9 L 349.4 -44.9 Q 349.4 -42.8 348.4 -41 L 348.4 -41 L 348.4 -41 Q 347.5 -39.2 346.1 -37.8 L 346.1 -37.8 L 346.1 -37.8 Q 342.6 -34.6 338.4 -34.6 L 338.4 -34.6 L 338.4 -34.6 Q 336.7 -34.6 335.1 -35.1 L 335.1 -35.1 L 335.1 -35.1 Q 335.4 -37.5 335.4 -40.3 L 335.4 -40.3 L 335.4 -40.3 Q 335.4 -43.1 335.2 -44.4 L 335.2 -44.4 L 335.2 -44.4 Q 335 -45.7 334.6 -46.7 L 334.6 -46.7 L 334.6 -46.7 Q 333.5 -48.9 331.2 -48.9 L 331.2 -48.9 L 331.2 -48.9 Q 329 -48.9 326.4 -46.4 L 326.4 -46.4 L 326.4 -46.4 Q 323.9 -44 321.9 -40 L 321.9 -40 L 321.9 -40 Q 317.5 -31 317.5 -20.2 L 317.5 -20.2 L 317.5 -20.2 Q 317.5 -15.3 319.4 -11.8 L 319.4 -11.8 L 319.4 -11.8 Q 321.5 -7.9 325.2 -7.9 L 325.2 -7.9 L 325.2 -7.9 Q 326.5 -7.9 327.6 -8.6 L 327.6 -8.6 L 327.6 -8.6 Q 328.8 -9.2 329.3 -9.7 L 329.3 -9.7 L 331.8 -25.8 Z M 355.4 -2.4 L 355.4 -2.4 L 355.4 -2.4 Q 353.5 -4.5 352.7 -7.8 L 352.7 -7.8 L 352.7 -7.8 Q 351.8 -11 351.8 -16.4 L 351.8 -16.4 L 351.8 -16.4 Q 351.8 -21.8 353.7 -26.6 L 353.7 -26.6 L 353.7 -26.6 Q 355.5 -31.5 358.9 -35 L 358.9 -35 L 358.9 -35 Q 365.8 -42.4 377.1 -42.4 L 377.1 -42.4 L 377.1 -42.4 Q 381.2 -42.4 384.2 -41 L 384.2 -41 L 397.8 -42.4 L 391.9 -11.2 L 391.9 -11.2 Q 391.7 -10.2 391.7 -8.5 L 391.7 -8.5 L 391.7 -8.5 Q 391.7 -6.7 392.8 -5.6 L 392.8 -5.6 L 392.8 -5.6 Q 393.8 -4.5 395.4 -4.3 L 395.4 -4.3 L 395.4 -4.3 Q 394.6 -1.6 391.7 0 L 391.7 0 L 391.7 0 Q 388.8 1.6 385.5 1.6 L 385.5 1.6 L 385.5 1.6 Q 382.2 1.6 380 0.4 L 380 0.4 L 380 0.4 Q 377.8 -0.9 377.2 -3 L 377.2 -3 L 377.2 -3 Q 375.9 -1 373.2 0.3 L 373.2 0.3 L 373.2 0.3 Q 370.5 1.6 366.8 1.6 L 366.8 1.6 L 366.8 1.6 Q 363.2 1.6 360.2 0.6 L 360.2 0.6 L 360.2 0.6 Q 357.3 -0.3 355.4 -2.4 Z M 372.3 -34.9 L 372.3 -34.9 L 372.3 -34.9 Q 371.4 -33.4 370.6 -31 L 370.6 -31 L 370.6 -31 Q 369.8 -28.6 368.4 -22 L 368.4 -22 L 368.4 -22 Q 367.1 -15.5 367.1 -10.9 L 367.1 -10.9 L 367.1 -10.9 Q 367.1 -6.2 367.8 -4.9 L 367.8 -4.9 L 367.8 -4.9 Q 368.6 -3.5 369.8 -3.5 L 369.8 -3.5 L 369.8 -3.5 Q 372.4 -3.5 374.3 -6 L 374.3 -6 L 374.3 -6 Q 376.2 -8.4 376.9 -12.7 L 376.9 -12.7 L 381.1 -36.2 L 381.1 -36.2 Q 379.4 -37.6 377.5 -37.6 L 377.5 -37.6 L 377.5 -37.6 Q 375.5 -37.6 374.4 -37 L 374.4 -37 L 374.4 -37 Q 373.2 -36.3 372.3 -34.9 Z M 421.3 -4.4 L 421.3 -4.4 L 421.3 -4.4 Q 418.8 1.6 410.9 1.6 L 410.9 1.6 L 410.9 1.6 Q 406.9 1.6 404.3 -1.2 L 404.3 -1.2 L 404.3 -1.2 Q 402.2 -3.5 402.2 -6.2 L 402.2 -6.2 L 402.2 -6.2 Q 402.2 -12.2 405 -25.3 L 405 -25.3 L 410.9 -56 L 427.1 -57.6 L 419.4 -17.1 L 419.4 -17.1 Q 418 -11.2 418 -9.1 L 418 -9.1 L 418 -9.1 Q 418 -4.6 421.3 -4.4 Z M 447.2 -4.4 L 447.2 -4.4 L 447.2 -4.4 Q 444.7 1.6 436.8 1.6 L 436.8 1.6 L 436.8 1.6 Q 432.8 1.6 430.2 -1.2 L 430.2 -1.2 L 430.2 -1.2 Q 428.2 -3.5 428.2 -6.2 L 428.2 -6.2 L 428.2 -6.2 Q 428.2 -12.2 431 -25.3 L 431 -25.3 L 436.8 -56 L 453 -57.6 L 445.3 -17.1 L 445.3 -17.1 Q 443.9 -11.2 443.9 -9.1 L 443.9 -9.1 L 443.9 -9.1 Q 443.9 -4.6 447.2 -4.4 Z M 486.4 -13.5 L 486.4 -13.5 L 486.4 -13.5 Q 488.4 -12.2 488.4 -9.2 L 488.4 -9.2 L 488.4 -9.2 Q 488.4 -6.2 486.9 -4.2 L 486.9 -4.2 L 486.9 -4.2 Q 485.4 -2.3 482.9 -1 L 482.9 -1 L 482.9 -1 Q 477.8 1.6 472.2 1.6 L 472.2 1.6 L 472.2 1.6 Q 466.7 1.6 463.5 0.4 L 463.5 0.4 L 463.5 0.4 Q 460.2 -0.8 458.1 -3 L 458.1 -3 L 458.1 -3 Q 453.8 -7.3 453.8 -15 L 453.8 -15 L 453.8 -15 Q 453.8 -27.1 460.4 -34.5 L 460.4 -34.5 L 460.4 -34.5 Q 467.4 -42.4 479.7 -42.4 L 479.7 -42.4 L 479.7 -42.4 Q 487.3 -42.4 491 -39.2 L 491 -39.2 L 491 -39.2 Q 493.8 -36.8 493.8 -32.9 L 493.8 -32.9 L 493.8 -32.9 Q 493.8 -18.8 469.5 -18.8 L 469.5 -18.8 L 469.5 -18.8 Q 469.2 -16.7 469.2 -15 L 469.2 -15 L 469.2 -15 Q 469.2 -11.3 470.8 -9.9 L 470.8 -9.9 L 470.8 -9.9 Q 472.5 -8.5 475.5 -8.5 L 475.5 -8.5 L 475.5 -8.5 Q 478.6 -8.5 481.8 -9.9 L 481.8 -9.9 L 481.8 -9.9 Q 485 -11.3 486.4 -13.5 Z M 470.1 -22.2 L 470.1 -22.2 L 470.1 -22.2 Q 475.8 -22.2 479 -25.8 L 479 -25.8 L 479 -25.8 Q 482.3 -29.1 482.3 -34.5 L 482.3 -34.5 L 482.3 -34.5 Q 482.3 -36.3 481.6 -37.3 L 481.6 -37.3 L 481.6 -37.3 Q 481 -38.3 479.6 -38.3 L 479.6 -38.3 L 479.6 -38.3 Q 478.2 -38.3 477.1 -37.8 L 477.1 -37.8 L 477.1 -37.8 Q 475.9 -37.3 474.7 -35.5 L 474.7 -35.5 L 474.7 -35.5 Q 471.8 -31.5 470.1 -22.2 Z M 521.6 -22.5 L 521.6 -22.5 L 521.6 -22.5 Q 524.5 -27.6 524.5 -32.8 L 524.5 -32.8 L 524.5 -32.8 Q 524.5 -36.2 522 -36.2 L 522 -36.2 L 522 -36.2 Q 520.1 -36.2 518.1 -33 L 518.1 -33 L 518.1 -33 Q 516 -29.7 515.4 -25.4 L 515.4 -25.4 L 511.2 0 L 494.6 1.6 L 502.8 -40.8 L 516 -42.4 L 514.6 -34.3 L 514.6 -34.3 Q 518.5 -42.4 527.3 -42.4 L 527.3 -42.4 L 527.3 -42.4 Q 531.9 -42.4 534.4 -40 L 534.4 -40 L 534.4 -40 Q 537 -37.6 537 -32.7 L 537 -32.7 L 537 -32.7 Q 537 -27.8 533.7 -24.6 L 533.7 -24.6 L 533.7 -24.6 Q 530.5 -21.5 525 -21.5 L 525 -21.5 L 525 -21.5 Q 522.6 -21.5 521.6 -22.5 Z M 563.7 -9 L 563.7 -9 L 563.7 -9 Q 559.5 -4.7 551.9 -4.7 L 551.9 -4.7 L 551.9 -4.7 Q 542.4 -4.7 540.4 -11.7 L 540.4 -11.7 L 540.4 -11.7 Q 539.8 -13.8 539.8 -16.1 L 539.8 -16.1 L 539.8 -16.1 Q 539.8 -18.4 540.2 -20.8 L 540.2 -20.8 L 544 -40.8 L 560.2 -42.4 L 555.8 -19.1 L 555.8 -19.1 Q 555.7 -18.1 555.4 -17 L 555.4 -17 L 555.4 -17 Q 555.2 -15.8 555.2 -14.7 L 555.2 -14.7 L 555.2 -14.7 Q 555.2 -13.5 555.6 -12.8 L 555.6 -12.8 L 555.6 -12.8 Q 556 -12 556.6 -11.5 L 556.6 -11.5 L 556.6 -11.5 Q 557.5 -10.9 559.2 -10.9 L 559.2 -10.9 L 559.2 -10.9 Q 561 -10.9 562.4 -13 L 562.4 -13 L 562.4 -13 Q 563.9 -15 564.6 -18.6 L 564.6 -18.6 L 569 -40.8 L 584.8 -42.4 L 578.8 -11 L 578.8 -11 Q 575.8 4.4 569.8 10.5 L 569.8 10.5 L 569.8 10.5 Q 566.6 13.6 562.6 14.8 L 562.6 14.8 L 562.6 14.8 Q 558.6 16.1 553.4 16.1 L 553.4 16.1 L 553.4 16.1 Q 545 16.1 540.2 13.4 L 540.2 13.4 L 540.2 13.4 Q 535.4 10.8 535.4 6.4 L 535.4 6.4 L 535.4 6.4 Q 535.4 3.1 537.8 1.2 L 537.8 1.2 L 537.8 1.2 Q 540.3 -0.6 544.2 -0.6 L 544.2 -0.6 L 544.2 -0.6 Q 547.5 -0.6 550.1 0.8 L 550.1 0.8 L 550.1 0.8 Q 551.6 1.7 552.3 2.8 L 552.3 2.8 L 552.3 2.8 Q 550.5 4.4 550.5 7 L 550.5 7 L 550.5 7 Q 550.5 10.6 553.7 10.6 L 553.7 10.6 L 553.7 10.6 Q 559 10.6 562 -1.6 L 562 -1.6 L 562 -1.6 Q 562.9 -5.2 563.7 -9 Z" fill="url(#editing-shiny-gradient)"></path></g></g><g filter="url(#editing-shiny2)"><g transform="translate(-42.6,111.8)"><path d="M 17.9 0 L 0.5 0 L 10.6 -52.8 L 28.2 -52.8 L 17.9 0 Z M 87.6 1.6 L 87.6 1.6 L 87.6 1.6 Q 77.9 1.6 77.9 -5.9 L 77.9 -5.9 L 77.9 -5.9 Q 77.9 -9.2 79.3 -15.6 L 79.3 -15.6 L 79.3 -15.6 Q 80.7 -21.9 81.2 -24.5 L 81.2 -24.5 L 81.2 -24.5 Q 82.3 -30.3 82.3 -32.2 L 82.3 -32.2 L 82.3 -32.2 Q 82.3 -36.2 79.3 -36.2 L 79.3 -36.2 L 79.3 -36.2 Q 77.3 -36.2 75.4 -33.5 L 75.4 -33.5 L 75.4 -33.5 Q 73.4 -30.7 72.6 -25.2 L 72.6 -25.2 L 67.6 0 L 52 1.6 L 56.3 -20.2 L 56.3 -20.2 Q 57 -23.8 57.7 -27.8 L 57.7 -27.8 L 57.7 -27.8 Q 58.3 -31.9 58.3 -32.6 L 58.3 -32.6 L 58.3 -32.6 Q 58.3 -36.2 55.6 -36.2 L 55.6 -36.2 L 55.6 -36.2 Q 53.8 -36.2 51.8 -33.5 L 51.8 -33.5 L 51.8 -33.5 Q 49.8 -30.8 48.6 -25.2 L 48.6 -25.2 L 43.8 0 L 28 1.6 L 36.4 -40.8 L 49.4 -42.4 L 48.1 -34.3 L 48.1 -34.3 Q 50.2 -38.6 54 -40.5 L 54 -40.5 L 54 -40.5 Q 57.8 -42.4 63.8 -42.4 L 63.8 -42.4 L 63.8 -42.4 Q 67.3 -42.4 69.5 -40.7 L 69.5 -40.7 L 69.5 -40.7 Q 71.8 -39 72.5 -36.3 L 72.5 -36.3 L 72.5 -36.3 Q 73.8 -39.1 77.3 -40.8 L 77.3 -40.8 L 77.3 -40.8 Q 80.8 -42.4 85.1 -42.4 L 85.1 -42.4 L 85.1 -42.4 Q 89.4 -42.4 91.5 -41.5 L 91.5 -41.5 L 91.5 -41.5 Q 93.6 -40.6 94.9 -39 L 94.9 -39 L 94.9 -39 Q 97 -36.2 97 -31.1 L 97 -31.1 L 97 -31.1 Q 97 -26.1 94.9 -15.6 L 94.9 -15.6 L 94.9 -15.6 Q 93.8 -10.5 93.8 -8.6 L 93.8 -8.6 L 93.8 -8.6 Q 93.8 -6.7 94.8 -5.6 L 94.8 -5.6 L 94.8 -5.6 Q 95.9 -4.5 97.5 -4.3 L 97.5 -4.3 L 97.5 -4.3 Q 96.7 -1.6 94 0 L 94 0 L 94 0 Q 91.2 1.6 87.6 1.6 Z M 107.2 -2.4 L 107.2 -2.4 L 107.2 -2.4 Q 105.3 -4.5 104.4 -7.8 L 104.4 -7.8 L 104.4 -7.8 Q 103.6 -11 103.6 -16.4 L 103.6 -16.4 L 103.6 -16.4 Q 103.6 -21.8 105.4 -26.6 L 105.4 -26.6 L 105.4 -26.6 Q 107.3 -31.5 110.6 -35 L 110.6 -35 L 110.6 -35 Q 117.5 -42.4 128.9 -42.4 L 128.9 -42.4 L 128.9 -42.4 Q 133 -42.4 135.9 -41 L 135.9 -41 L 149.6 -42.4 L 143.7 -11.2 L 143.7 -11.2 Q 143.4 -10.2 143.4 -8.5 L 143.4 -8.5 L 143.4 -8.5 Q 143.4 -6.7 144.5 -5.6 L 144.5 -5.6 L 144.5 -5.6 Q 145.6 -4.5 147.2 -4.3 L 147.2 -4.3 L 147.2 -4.3 Q 146.4 -1.6 143.5 0 L 143.5 0 L 143.5 0 Q 140.6 1.6 137.3 1.6 L 137.3 1.6 L 137.3 1.6 Q 134 1.6 131.8 0.4 L 131.8 0.4 L 131.8 0.4 Q 129.6 -0.9 129 -3 L 129 -3 L 129 -3 Q 127.7 -1 125 0.3 L 125 0.3 L 125 0.3 Q 122.2 1.6 118.6 1.6 L 118.6 1.6 L 118.6 1.6 Q 115 1.6 112 0.6 L 112 0.6 L 112 0.6 Q 109 -0.3 107.2 -2.4 Z M 124 -34.9 L 124 -34.9 L 124 -34.9 Q 123.1 -33.4 122.3 -31 L 122.3 -31 L 122.3 -31 Q 121.5 -28.6 120.2 -22 L 120.2 -22 L 120.2 -22 Q 118.9 -15.5 118.9 -10.9 L 118.9 -10.9 L 118.9 -10.9 Q 118.9 -6.2 119.6 -4.9 L 119.6 -4.9 L 119.6 -4.9 Q 120.3 -3.5 121.6 -3.5 L 121.6 -3.5 L 121.6 -3.5 Q 124.2 -3.5 126 -6 L 126 -6 L 126 -6 Q 127.9 -8.4 128.6 -12.7 L 128.6 -12.7 L 132.9 -36.2 L 132.9 -36.2 Q 131.2 -37.6 129.2 -37.6 L 129.2 -37.6 L 129.2 -37.6 Q 127.3 -37.6 126.1 -37 L 126.1 -37 L 126.1 -37 Q 125 -36.3 124 -34.9 Z M 159.3 -33.4 L 159.3 -33.4 L 159.3 -33.4 Q 162 -37.3 166.1 -39.8 L 166.1 -39.8 L 166.1 -39.8 Q 170.2 -42.4 175.3 -42.4 L 175.3 -42.4 L 175.3 -42.4 Q 180.3 -42.4 182.7 -40.8 L 182.7 -40.8 L 198.4 -42.4 L 193 -11.7 L 193 -11.7 Q 190.2 4 184.2 10.2 L 184.2 10.2 L 184.2 10.2 Q 178.6 16 167.5 16 L 167.5 16 L 167.5 16 Q 159.1 16 154.3 13.4 L 154.3 13.4 L 154.3 13.4 Q 149.5 10.7 149.5 6.3 L 149.5 6.3 L 149.5 6.3 Q 149.5 3 152 1.2 L 152 1.2 L 152 1.2 Q 154.5 -0.7 158.3 -0.7 L 158.3 -0.7 L 158.3 -0.7 Q 161.7 -0.7 164.2 0.8 L 164.2 0.8 L 164.2 0.8 Q 165.8 1.6 166.5 2.7 L 166.5 2.7 L 166.5 2.7 Q 164.6 4.3 164.6 7 L 164.6 7 L 164.6 7 Q 164.6 10.4 167.8 10.4 L 167.8 10.4 L 167.8 10.4 Q 173.2 10.4 176.2 -2.2 L 176.2 -2.2 L 176.2 -2.2 Q 177.1 -5.7 177.8 -9.1 L 177.8 -9.1 L 177.8 -9.1 Q 174.2 -4.7 166.1 -4.7 L 166.1 -4.7 L 166.1 -4.7 Q 160.4 -4.7 157.1 -7.4 L 157.1 -7.4 L 157.1 -7.4 Q 153.8 -10.2 153.8 -16.6 L 153.8 -16.6 L 153.8 -16.6 Q 153.8 -20.6 155.2 -25.1 L 155.2 -25.1 L 155.2 -25.1 Q 156.6 -29.6 159.3 -33.4 Z M 169.7 -16.3 L 169.7 -16.3 L 169.7 -16.3 Q 169.7 -10.9 172.5 -10.9 L 172.5 -10.9 L 172.5 -10.9 Q 174.4 -10.9 176.2 -13 L 176.2 -13 L 176.2 -13 Q 177.7 -14.6 178.2 -17.1 L 178.2 -17.1 L 182.3 -37.7 L 182.3 -37.7 Q 181.9 -37.8 181.5 -37.9 L 181.5 -37.9 L 181.5 -37.9 Q 180.7 -38.2 179.7 -38.2 L 179.7 -38.2 L 179.7 -38.2 Q 174.8 -38.2 171.9 -30.2 L 171.9 -30.2 L 171.9 -30.2 Q 169.7 -24 169.7 -16.3 Z M 233.9 -13.5 L 233.9 -13.5 L 233.9 -13.5 Q 235.9 -12.2 235.9 -9.2 L 235.9 -9.2 L 235.9 -9.2 Q 235.9 -6.2 234.4 -4.2 L 234.4 -4.2 L 234.4 -4.2 Q 232.9 -2.3 230.4 -1 L 230.4 -1 L 230.4 -1 Q 225.3 1.6 219.8 1.6 L 219.8 1.6 L 219.8 1.6 Q 214.2 1.6 211 0.4 L 211 0.4 L 211 0.4 Q 207.8 -0.8 205.6 -3 L 205.6 -3 L 205.6 -3 Q 201.4 -7.3 201.4 -15 L 201.4 -15 L 201.4 -15 Q 201.4 -27.1 207.9 -34.5 L 207.9 -34.5 L 207.9 -34.5 Q 215 -42.4 227.2 -42.4 L 227.2 -42.4 L 227.2 -42.4 Q 234.8 -42.4 238.6 -39.2 L 238.6 -39.2 L 238.6 -39.2 Q 241.4 -36.8 241.4 -32.9 L 241.4 -32.9 L 241.4 -32.9 Q 241.4 -18.8 217 -18.8 L 217 -18.8 L 217 -18.8 Q 216.7 -16.7 216.7 -15 L 216.7 -15 L 216.7 -15 Q 216.7 -11.3 218.4 -9.9 L 218.4 -9.9 L 218.4 -9.9 Q 220 -8.5 223 -8.5 L 223 -8.5 L 223 -8.5 Q 226.1 -8.5 229.3 -9.9 L 229.3 -9.9 L 229.3 -9.9 Q 232.6 -11.3 233.9 -13.5 Z M 217.6 -22.2 L 217.6 -22.2 L 217.6 -22.2 Q 223.3 -22.2 226.6 -25.8 L 226.6 -25.8 L 226.6 -25.8 Q 229.8 -29.1 229.8 -34.5 L 229.8 -34.5 L 229.8 -34.5 Q 229.8 -36.3 229.2 -37.3 L 229.2 -37.3 L 229.2 -37.3 Q 228.5 -38.3 227.1 -38.3 L 227.1 -38.3 L 227.1 -38.3 Q 225.8 -38.3 224.6 -37.8 L 224.6 -37.8 L 224.6 -37.8 Q 223.4 -37.3 222.2 -35.5 L 222.2 -35.5 L 222.2 -35.5 Q 219.3 -31.5 217.6 -22.2 Z M 268 -28.1 L 268 -28.1 L 268 -28.1 Q 269.1 -31 269.1 -33.6 L 269.1 -33.6 L 269.1 -33.6 Q 269.1 -38.3 265.3 -38.3 L 265.3 -38.3 L 265.3 -38.3 Q 263.3 -38.3 261.6 -36.5 L 261.6 -36.5 L 261.6 -36.5 Q 260 -34.7 260 -32.5 L 260 -32.5 L 260 -32.5 Q 260 -30.9 261.3 -29.6 L 261.3 -29.6 L 261.3 -29.6 Q 263.1 -27.8 267.8 -25 L 267.8 -25 L 267.8 -25 Q 272.6 -22.1 274.4 -19.7 L 274.4 -19.7 L 274.4 -19.7 Q 276.2 -17.4 276.2 -14.1 L 276.2 -14.1 L 276.2 -14.1 Q 276.2 -10.9 274.6 -7.9 L 274.6 -7.9 L 274.6 -7.9 Q 273 -5 270.2 -2.9 L 270.2 -2.9 L 270.2 -2.9 Q 264.2 1.6 254.6 1.6 L 254.6 1.6 L 254.6 1.6 Q 249.4 1.6 245.4 -1.1 L 245.4 -1.1 L 245.4 -1.1 Q 241.4 -3.8 241.4 -6.9 L 241.4 -6.9 L 241.4 -6.9 Q 241.4 -10 243.7 -11.8 L 243.7 -11.8 L 243.7 -11.8 Q 246 -13.7 249.4 -13.7 L 249.4 -13.7 L 249.4 -13.7 Q 252.7 -13.7 254.8 -12.4 L 254.8 -12.4 L 254.8 -12.4 Q 253.8 -9.8 253.8 -8 L 253.8 -8 L 253.8 -8 Q 253.8 -2.7 258.2 -2.7 L 258.2 -2.7 L 258.2 -2.7 Q 260.2 -2.7 261.4 -3.9 L 261.4 -3.9 L 261.4 -3.9 Q 262.7 -5.1 262.7 -7.2 L 262.7 -7.2 L 262.7 -7.2 Q 262.7 -11.3 255.8 -15.6 L 255.8 -15.6 L 255.8 -15.6 Q 250.2 -19.3 249 -20.7 L 249 -20.7 L 249 -20.7 Q 246.8 -23.3 246.8 -26.5 L 246.8 -26.5 L 246.8 -26.5 Q 246.8 -29.7 248.3 -32.7 L 248.3 -32.7 L 248.3 -32.7 Q 249.8 -35.8 252.6 -37.9 L 252.6 -37.9 L 252.6 -37.9 Q 258.5 -42.4 268.6 -42.4 L 268.6 -42.4 L 268.6 -42.4 Q 273.8 -42.4 276.9 -40.3 L 276.9 -40.3 L 276.9 -40.3 Q 280 -38.2 280 -34.7 L 280 -34.7 L 280 -34.7 Q 280 -31.2 277.9 -29.2 L 277.9 -29.2 L 277.9 -29.2 Q 275.8 -27.2 271.9 -27.2 L 271.9 -27.2 L 271.9 -27.2 Q 269.3 -27.2 268 -28.1 Z M 331.8 -25.8 L 348 -27.2 L 348 -27.2 Q 342.2 -14.6 342.2 0.1 L 342.2 0.1 L 342.2 0.1 Q 340.1 1.6 336.9 1.6 L 336.9 1.6 L 336.9 1.6 Q 333.8 1.6 331.8 0.1 L 331.8 0.1 L 331.8 0.1 Q 329.8 -1.4 329.4 -2.9 L 329.4 -2.9 L 329.4 -2.9 Q 327.4 -0.8 324.1 0.4 L 324.1 0.4 L 324.1 0.4 Q 320.9 1.6 317.4 1.6 L 317.4 1.6 L 317.4 1.6 Q 314 1.6 311 0.5 L 311 0.5 L 311 0.5 Q 308 -0.6 305.7 -3.1 L 305.7 -3.1 L 305.7 -3.1 Q 300.6 -8.6 300.6 -18.9 L 300.6 -18.9 L 300.6 -18.9 Q 300.6 -34.9 309.1 -44.5 L 309.1 -44.5 L 309.1 -44.5 Q 317.9 -54.4 333.5 -54.4 L 333.5 -54.4 L 333.5 -54.4 Q 344.3 -54.4 348.2 -48.8 L 348.2 -48.8 L 348.2 -48.8 Q 349.4 -47 349.4 -44.9 L 349.4 -44.9 L 349.4 -44.9 Q 349.4 -42.8 348.4 -41 L 348.4 -41 L 348.4 -41 Q 347.5 -39.2 346.1 -37.8 L 346.1 -37.8 L 346.1 -37.8 Q 342.6 -34.6 338.4 -34.6 L 338.4 -34.6 L 338.4 -34.6 Q 336.7 -34.6 335.1 -35.1 L 335.1 -35.1 L 335.1 -35.1 Q 335.4 -37.5 335.4 -40.3 L 335.4 -40.3 L 335.4 -40.3 Q 335.4 -43.1 335.2 -44.4 L 335.2 -44.4 L 335.2 -44.4 Q 335 -45.7 334.6 -46.7 L 334.6 -46.7 L 334.6 -46.7 Q 333.5 -48.9 331.2 -48.9 L 331.2 -48.9 L 331.2 -48.9 Q 329 -48.9 326.4 -46.4 L 326.4 -46.4 L 326.4 -46.4 Q 323.9 -44 321.9 -40 L 321.9 -40 L 321.9 -40 Q 317.5 -31 317.5 -20.2 L 317.5 -20.2 L 317.5 -20.2 Q 317.5 -15.3 319.4 -11.8 L 319.4 -11.8 L 319.4 -11.8 Q 321.5 -7.9 325.2 -7.9 L 325.2 -7.9 L 325.2 -7.9 Q 326.5 -7.9 327.6 -8.6 L 327.6 -8.6 L 327.6 -8.6 Q 328.8 -9.2 329.3 -9.7 L 329.3 -9.7 L 331.8 -25.8 Z M 355.4 -2.4 L 355.4 -2.4 L 355.4 -2.4 Q 353.5 -4.5 352.7 -7.8 L 352.7 -7.8 L 352.7 -7.8 Q 351.8 -11 351.8 -16.4 L 351.8 -16.4 L 351.8 -16.4 Q 351.8 -21.8 353.7 -26.6 L 353.7 -26.6 L 353.7 -26.6 Q 355.5 -31.5 358.9 -35 L 358.9 -35 L 358.9 -35 Q 365.8 -42.4 377.1 -42.4 L 377.1 -42.4 L 377.1 -42.4 Q 381.2 -42.4 384.2 -41 L 384.2 -41 L 397.8 -42.4 L 391.9 -11.2 L 391.9 -11.2 Q 391.7 -10.2 391.7 -8.5 L 391.7 -8.5 L 391.7 -8.5 Q 391.7 -6.7 392.8 -5.6 L 392.8 -5.6 L 392.8 -5.6 Q 393.8 -4.5 395.4 -4.3 L 395.4 -4.3 L 395.4 -4.3 Q 394.6 -1.6 391.7 0 L 391.7 0 L 391.7 0 Q 388.8 1.6 385.5 1.6 L 385.5 1.6 L 385.5 1.6 Q 382.2 1.6 380 0.4 L 380 0.4 L 380 0.4 Q 377.8 -0.9 377.2 -3 L 377.2 -3 L 377.2 -3 Q 375.9 -1 373.2 0.3 L 373.2 0.3 L 373.2 0.3 Q 370.5 1.6 366.8 1.6 L 366.8 1.6 L 366.8 1.6 Q 363.2 1.6 360.2 0.6 L 360.2 0.6 L 360.2 0.6 Q 357.3 -0.3 355.4 -2.4 Z M 372.3 -34.9 L 372.3 -34.9 L 372.3 -34.9 Q 371.4 -33.4 370.6 -31 L 370.6 -31 L 370.6 -31 Q 369.8 -28.6 368.4 -22 L 368.4 -22 L 368.4 -22 Q 367.1 -15.5 367.1 -10.9 L 367.1 -10.9 L 367.1 -10.9 Q 367.1 -6.2 367.8 -4.9 L 367.8 -4.9 L 367.8 -4.9 Q 368.6 -3.5 369.8 -3.5 L 369.8 -3.5 L 369.8 -3.5 Q 372.4 -3.5 374.3 -6 L 374.3 -6 L 374.3 -6 Q 376.2 -8.4 376.9 -12.7 L 376.9 -12.7 L 381.1 -36.2 L 381.1 -36.2 Q 379.4 -37.6 377.5 -37.6 L 377.5 -37.6 L 377.5 -37.6 Q 375.5 -37.6 374.4 -37 L 374.4 -37 L 374.4 -37 Q 373.2 -36.3 372.3 -34.9 Z M 421.3 -4.4 L 421.3 -4.4 L 421.3 -4.4 Q 418.8 1.6 410.9 1.6 L 410.9 1.6 L 410.9 1.6 Q 406.9 1.6 404.3 -1.2 L 404.3 -1.2 L 404.3 -1.2 Q 402.2 -3.5 402.2 -6.2 L 402.2 -6.2 L 402.2 -6.2 Q 402.2 -12.2 405 -25.3 L 405 -25.3 L 410.9 -56 L 427.1 -57.6 L 419.4 -17.1 L 419.4 -17.1 Q 418 -11.2 418 -9.1 L 418 -9.1 L 418 -9.1 Q 418 -4.6 421.3 -4.4 Z M 447.2 -4.4 L 447.2 -4.4 L 447.2 -4.4 Q 444.7 1.6 436.8 1.6 L 436.8 1.6 L 436.8 1.6 Q 432.8 1.6 430.2 -1.2 L 430.2 -1.2 L 430.2 -1.2 Q 428.2 -3.5 428.2 -6.2 L 428.2 -6.2 L 428.2 -6.2 Q 428.2 -12.2 431 -25.3 L 431 -25.3 L 436.8 -56 L 453 -57.6 L 445.3 -17.1 L 445.3 -17.1 Q 443.9 -11.2 443.9 -9.1 L 443.9 -9.1 L 443.9 -9.1 Q 443.9 -4.6 447.2 -4.4 Z M 486.4 -13.5 L 486.4 -13.5 L 486.4 -13.5 Q 488.4 -12.2 488.4 -9.2 L 488.4 -9.2 L 488.4 -9.2 Q 488.4 -6.2 486.9 -4.2 L 486.9 -4.2 L 486.9 -4.2 Q 485.4 -2.3 482.9 -1 L 482.9 -1 L 482.9 -1 Q 477.8 1.6 472.2 1.6 L 472.2 1.6 L 472.2 1.6 Q 466.7 1.6 463.5 0.4 L 463.5 0.4 L 463.5 0.4 Q 460.2 -0.8 458.1 -3 L 458.1 -3 L 458.1 -3 Q 453.8 -7.3 453.8 -15 L 453.8 -15 L 453.8 -15 Q 453.8 -27.1 460.4 -34.5 L 460.4 -34.5 L 460.4 -34.5 Q 467.4 -42.4 479.7 -42.4 L 479.7 -42.4 L 479.7 -42.4 Q 487.3 -42.4 491 -39.2 L 491 -39.2 L 491 -39.2 Q 493.8 -36.8 493.8 -32.9 L 493.8 -32.9 L 493.8 -32.9 Q 493.8 -18.8 469.5 -18.8 L 469.5 -18.8 L 469.5 -18.8 Q 469.2 -16.7 469.2 -15 L 469.2 -15 L 469.2 -15 Q 469.2 -11.3 470.8 -9.9 L 470.8 -9.9 L 470.8 -9.9 Q 472.5 -8.5 475.5 -8.5 L 475.5 -8.5 L 475.5 -8.5 Q 478.6 -8.5 481.8 -9.9 L 481.8 -9.9 L 481.8 -9.9 Q 485 -11.3 486.4 -13.5 Z M 470.1 -22.2 L 470.1 -22.2 L 470.1 -22.2 Q 475.8 -22.2 479 -25.8 L 479 -25.8 L 479 -25.8 Q 482.3 -29.1 482.3 -34.5 L 482.3 -34.5 L 482.3 -34.5 Q 482.3 -36.3 481.6 -37.3 L 481.6 -37.3 L 481.6 -37.3 Q 481 -38.3 479.6 -38.3 L 479.6 -38.3 L 479.6 -38.3 Q 478.2 -38.3 477.1 -37.8 L 477.1 -37.8 L 477.1 -37.8 Q 475.9 -37.3 474.7 -35.5 L 474.7 -35.5 L 474.7 -35.5 Q 471.8 -31.5 470.1 -22.2 Z M 521.6 -22.5 L 521.6 -22.5 L 521.6 -22.5 Q 524.5 -27.6 524.5 -32.8 L 524.5 -32.8 L 524.5 -32.8 Q 524.5 -36.2 522 -36.2 L 522 -36.2 L 522 -36.2 Q 520.1 -36.2 518.1 -33 L 518.1 -33 L 518.1 -33 Q 516 -29.7 515.4 -25.4 L 515.4 -25.4 L 511.2 0 L 494.6 1.6 L 502.8 -40.8 L 516 -42.4 L 514.6 -34.3 L 514.6 -34.3 Q 518.5 -42.4 527.3 -42.4 L 527.3 -42.4 L 527.3 -42.4 Q 531.9 -42.4 534.4 -40 L 534.4 -40 L 534.4 -40 Q 537 -37.6 537 -32.7 L 537 -32.7 L 537 -32.7 Q 537 -27.8 533.7 -24.6 L 533.7 -24.6 L 533.7 -24.6 Q 530.5 -21.5 525 -21.5 L 525 -21.5 L 525 -21.5 Q 522.6 -21.5 521.6 -22.5 Z M 563.7 -9 L 563.7 -9 L 563.7 -9 Q 559.5 -4.7 551.9 -4.7 L 551.9 -4.7 L 551.9 -4.7 Q 542.4 -4.7 540.4 -11.7 L 540.4 -11.7 L 540.4 -11.7 Q 539.8 -13.8 539.8 -16.1 L 539.8 -16.1 L 539.8 -16.1 Q 539.8 -18.4 540.2 -20.8 L 540.2 -20.8 L 544 -40.8 L 560.2 -42.4 L 555.8 -19.1 L 555.8 -19.1 Q 555.7 -18.1 555.4 -17 L 555.4 -17 L 555.4 -17 Q 555.2 -15.8 555.2 -14.7 L 555.2 -14.7 L 555.2 -14.7 Q 555.2 -13.5 555.6 -12.8 L 555.6 -12.8 L 555.6 -12.8 Q 556 -12 556.6 -11.5 L 556.6 -11.5 L 556.6 -11.5 Q 557.5 -10.9 559.2 -10.9 L 559.2 -10.9 L 559.2 -10.9 Q 561 -10.9 562.4 -13 L 562.4 -13 L 562.4 -13 Q 563.9 -15 564.6 -18.6 L 564.6 -18.6 L 569 -40.8 L 584.8 -42.4 L 578.8 -11 L 578.8 -11 Q 575.8 4.4 569.8 10.5 L 569.8 10.5 L 569.8 10.5 Q 566.6 13.6 562.6 14.8 L 562.6 14.8 L 562.6 14.8 Q 558.6 16.1 553.4 16.1 L 553.4 16.1 L 553.4 16.1 Q 545 16.1 540.2 13.4 L 540.2 13.4 L 540.2 13.4 Q 535.4 10.8 535.4 6.4 L 535.4 6.4 L 535.4 6.4 Q 535.4 3.1 537.8 1.2 L 537.8 1.2 L 537.8 1.2 Q 540.3 -0.6 544.2 -0.6 L 544.2 -0.6 L 544.2 -0.6 Q 547.5 -0.6 550.1 0.8 L 550.1 0.8 L 550.1 0.8 Q 551.6 1.7 552.3 2.8 L 552.3 2.8 L 552.3 2.8 Q 550.5 4.4 550.5 7 L 550.5 7 L 550.5 7 Q 550.5 10.6 553.7 10.6 L 553.7 10.6 L 553.7 10.6 Q 559 10.6 562 -1.6 L 562 -1.6 L 562 -1.6 Q 562.9 -5.2 563.7 -9 Z" fill="url(#editing-shiny-gradient2)"></path></g></g><style>text {
  font-size: 64px;
  font-family: Arial Black;
  dominant-baseline: central;
  text-anchor: middle;
}</style></svg>